M48
; DRILL file {KiCad 5.1.6} date Thu Aug  6 14:12:10 2020
; FORMAT={-:-/ absolute / inch / decimal}
; #@! TF.CreationDate,2020-08-06T14:12:10+02:00
; #@! TF.GenerationSoftware,Kicad,Pcbnew,5.1.6
; #@! TF.FileFunction,Plated,1,2,PTH
FMAT,2
INCH
T1C0.0315
%
G90
G05
T1
X3.525Y-2.575
X2.625Y-2.575
X2.525Y-1.275
X2.525Y-2.775
X2.125Y-2.675
X2.225Y-1.275
X2.425Y-2.275
X2.125Y-1.675
X2.925Y-1.475
X2.825Y-1.375
X3.325Y-2.875
X4.125Y-2.175
X3.825Y-1.675
X2.825Y-2.675
X3.025Y-2.775
X3.525Y-2.875
X3.425Y-2.575
X2.725Y-2.375
X3.325Y-2.675
X3.625Y-2.775
X4.125Y-1.475
X2.325Y-2.675
X2.325Y-1.875
X3.025Y-2.675
X3.525Y-2.475
X3.125Y-2.275
X2.925Y-2.275
X2.625Y-2.475
X2.725Y-1.875
X3.125Y-1.375
X2.825Y-1.275
X4.025Y-1.575
X3.425Y-2.775
X4.125Y-2.475
X2.025Y-2.675
X2.025Y-2.075
X2.225Y-1.475
X1.825Y-2.175
X1.925Y-1.875
X4.025Y-2.175
X3.625Y-1.575
X3.425Y-2.175
X2.525Y-1.675
X2.725Y-2.975
X3.225Y-2.975
X3.725Y-1.375
X2.925Y-2.375
X2.325Y-1.775
X3.025Y-2.475
X3.225Y-2.175
X2.025Y-1.875
X3.225Y-2.075
X2.025Y-1.575
X2.925Y-2.575
X3.125Y-2.875
X3.225Y-2.475
X2.325Y-2.575
X3.625Y-2.275
X3.725Y-1.475
X3.325Y-2.175
X3.925Y-1.375
X2.025Y-2.775
X1.925Y-2.075
X2.125Y-2.075
X2.725Y-1.575
X2.025Y-1.675
X2.525Y-2.875
X3.025Y-1.575
X2.825Y-2.975
X3.825Y-2.875
X1.825Y-2.475
X3.625Y-2.175
X3.325Y-2.375
X2.425Y-2.975
X3.425Y-2.875
X2.925Y-2.775
X4.025Y-1.975
X3.225Y-2.675
X4.025Y-2.775
X2.325Y-2.475
X3.425Y-2.675
X2.025Y-1.275
X2.425Y-2.175
X2.325Y-2.275
X1.925Y-1.975
X3.925Y-2.075
X3.825Y-1.375
X3.725Y-1.875
X3.425Y-1.575
X3.225Y-1.375
X3.025Y-2.175
X1.925Y-2.175
X2.525Y-2.475
X3.325Y-1.575
X3.525Y-1.675
X3.125Y-2.375
X2.725Y-1.275
X3.225Y-1.475
X2.325Y-2.375
X4.125Y-2.375
X3.825Y-1.575
X3.125Y-2.975
X3.325Y-2.475
X3.225Y-1.275
X3.225Y-1.675
X2.625Y-2.175
X2.125Y-1.975
X3.625Y-2.875
X3.625Y-2.375
X2.425Y-1.975
X1.925Y-2.475
X3.625Y-1.875
X3.225Y-2.375
X3.725Y-2.175
X3.325Y-1.675
X3.325Y-1.775
X2.925Y-2.075
X3.325Y-2.775
X2.025Y-2.475
X3.925Y-1.875
X3.425Y-1.375
X2.125Y-2.275
X2.225Y-2.275
X2.625Y-1.375
X3.925Y-2.575
X2.425Y-2.575
X3.525Y-2.275
X2.825Y-2.275
X3.725Y-2.875
X2.725Y-2.575
X3.325Y-1.875
X3.025Y-2.275
X2.925Y-1.675
X3.125Y-1.575
X3.625Y-2.975
X2.125Y-1.875
X2.225Y-1.775
X3.425Y-2.975
X3.425Y-2.075
X3.325Y-1.475
X3.025Y-2.075
X2.525Y-1.875
X2.825Y-2.075
X2.325Y-2.975
X1.825Y-2.675
X3.325Y-2.075
X3.125Y-1.875
X2.425Y-2.875
X3.625Y-1.375
X3.125Y-1.275
X2.925Y-1.975
X3.825Y-2.475
X4.025Y-2.075
X3.025Y-1.275
X2.725Y-2.075
X2.625Y-1.675
X1.825Y-2.575
X3.525Y-1.875
X3.925Y-1.475
X3.725Y-1.775
X3.425Y-1.775
X3.225Y-1.575
X2.325Y-2.175
X3.325Y-2.975
X3.125Y-2.675
X3.825Y-1.275
X2.125Y-2.575
X2.125Y-2.475
X1.825Y-1.775
X3.825Y-1.975
X2.625Y-2.775
X2.025Y-2.575
X3.525Y-2.075
X3.425Y-1.275
X3.925Y-1.675
X3.925Y-2.775
X3.725Y-2.475
X3.825Y-2.075
X2.225Y-2.975
X2.625Y-2.675
X3.625Y-2.575
X2.425Y-2.475
X2.025Y-2.175
X2.425Y-1.575
X2.225Y-2.575
X2.225Y-2.475
X2.925Y-2.975
X2.725Y-2.875
X3.125Y-2.075
X3.025Y-1.475
X2.325Y-1.975
X2.425Y-1.675
X2.625Y-1.475
X2.725Y-2.775
X1.825Y-2.275
X3.025Y-2.375
X2.825Y-2.875
X3.025Y-2.575
X2.125Y-1.275
X3.825Y-2.375
X2.025Y-2.275
X3.225Y-2.775
X4.125Y-1.975
X4.025Y-1.675
X3.125Y-1.975
X2.425Y-1.775
X2.925Y-1.575
X2.725Y-1.475
X2.525Y-1.475
X3.825Y-1.775
X3.725Y-2.575
X2.725Y-1.975
X3.925Y-2.875
X3.425Y-1.875
X3.025Y-1.675
X3.825Y-2.775
X3.425Y-2.375
X2.625Y-1.775
X2.825Y-1.875
X2.525Y-1.775
X2.925Y-1.375
X2.925Y-2.475
X3.825Y-2.175
X2.325Y-2.775
X3.325Y-1.975
X2.525Y-1.975
X1.925Y-1.675
X3.925Y-2.475
X3.625Y-1.775
X3.425Y-1.975
X2.225Y-1.675
X3.125Y-2.475
X3.225Y-2.575
X2.425Y-2.075
X1.925Y-2.275
X2.425Y-2.375
X2.825Y-1.775
X2.225Y-1.375
X3.225Y-2.875
X2.625Y-1.275
X3.125Y-1.775
X1.925Y-2.575
X1.925Y-2.775
X3.925Y-2.975
X3.125Y-2.575
X3.225Y-1.775
X2.725Y-2.675
X2.625Y-2.875
X3.825Y-2.975
X2.625Y-1.575
X2.325Y-1.575
X2.725Y-1.675
X4.125Y-2.675
X4.025Y-1.475
X4.025Y-2.575
X3.525Y-2.675
X2.225Y-1.575
X4.125Y-2.275
X3.725Y-1.675
X3.425Y-1.675
X2.125Y-2.175
X3.725Y-2.975
X3.425Y-2.475
X3.725Y-2.275
X2.625Y-2.075
X3.325Y-2.275
X3.225Y-1.875
X2.225Y-2.375
X2.525Y-1.575
X4.125Y-1.875
X2.625Y-2.975
X2.725Y-2.175
X2.625Y-2.275
X1.825Y-1.875
X3.825Y-1.475
X1.825Y-2.375
X3.925Y-2.375
X2.225Y-2.775
X2.225Y-1.875
X2.825Y-1.575
X4.125Y-2.775
X2.925Y-1.775
X2.425Y-1.475
X3.525Y-2.975
X2.225Y-2.075
X3.025Y-1.375
X1.825Y-1.975
X3.525Y-1.575
X2.125Y-1.775
X3.825Y-2.275
X2.125Y-2.375
X3.625Y-1.975
X3.525Y-2.375
X3.325Y-1.275
X3.525Y-1.475
X2.625Y-2.375
X4.125Y-1.775
X2.025Y-2.875
X4.025Y-2.375
X3.925Y-1.775
X2.025Y-2.975
X3.625Y-2.475
X2.225Y-2.875
X2.825Y-2.775
X3.725Y-2.375
X2.425Y-1.375
X2.325Y-1.375
X2.025Y-1.375
X4.025Y-2.275
X1.825Y-2.775
X2.725Y-1.775
X2.325Y-1.475
X4.025Y-2.475
X2.725Y-2.475
X2.125Y-2.975
X3.925Y-1.975
X3.625Y-1.675
X3.725Y-1.975
X1.925Y-2.375
X2.325Y-1.675
X2.125Y-2.775
X3.525Y-2.175
X2.725Y-2.275
X2.525Y-2.975
X2.925Y-1.275
X1.925Y-1.575
X2.425Y-2.675
X4.025Y-1.775
X2.925Y-1.875
X3.025Y-2.975
X4.125Y-1.675
X2.525Y-2.675
X2.525Y-2.375
X3.925Y-2.275
X3.725Y-1.575
X2.825Y-1.975
X1.825Y-1.575
X2.825Y-1.475
X2.825Y-2.575
X3.525Y-2.775
X3.125Y-2.175
X2.525Y-2.175
X2.925Y-2.175
X2.625Y-1.875
X3.325Y-2.575
X3.325Y-1.375
X2.425Y-1.275
X1.925Y-1.775
X3.825Y-2.675
X3.925Y-2.675
X2.925Y-2.675
X3.525Y-1.975
X2.025Y-1.475
X3.725Y-2.075
X3.725Y-1.275
X3.425Y-2.275
X3.025Y-2.875
X3.925Y-1.275
X4.025Y-2.675
X2.825Y-2.375
X3.825Y-1.875
X2.125Y-2.875
X3.125Y-2.775
X3.525Y-1.375
X1.825Y-2.075
X4.125Y-2.575
X3.725Y-2.775
X3.925Y-2.175
X1.925Y-2.675
X3.625Y-1.275
X3.425Y-1.475
X2.225Y-2.175
X2.625Y-1.975
X4.125Y-1.575
X2.825Y-2.175
X2.325Y-2.075
X2.725Y-1.375
X2.225Y-2.675
X3.625Y-2.075
X2.525Y-2.075
X2.125Y-1.375
X3.225Y-2.275
X2.125Y-1.475
X3.925Y-1.575
X2.925Y-2.875
X2.825Y-2.475
X3.025Y-1.975
X2.025Y-2.375
X2.825Y-1.675
X2.325Y-2.875
X3.625Y-1.475
X3.525Y-1.275
X3.025Y-1.875
X3.025Y-1.775
X3.125Y-1.475
X2.025Y-1.775
X2.325Y-1.275
X3.225Y-1.975
X2.525Y-2.275
X2.425Y-1.875
X2.025Y-1.975
X4.025Y-1.875
X2.425Y-2.775
X2.225Y-1.975
X2.525Y-1.375
X3.825Y-2.575
X4.125Y-2.075
X1.825Y-1.675
X3.625Y-2.675
X2.525Y-2.575
X3.725Y-2.675
X3.525Y-1.775
X3.125Y-1.675
X2.125Y-1.575
T0
M30
